<?xml version="1.0" encoding="UTF-8"?>
<!-- Created with Inkscape (http://www.inkscape.org/) -->
<svg width="48" height="48" version="1.1" viewBox="0 0 48 48" xmlns="http://www.w3.org/2000/svg">
 <g transform="matrix(7.3721 -5.6033 5.6033 7.3721 -59.18 27.213)" fill="none" stroke="#0000fd" stroke-linecap="round" stroke-linejoin="round" stroke-width=".34396">
  <path transform="rotate(4.2371)" d="m6.9725 1.7733a2.3823 2.7441 0 0 1 2.4681 2.5086 2.3823 2.7441 0 0 1-2.0635 2.954"/>
  <path transform="rotate(4.2371)" d="m6.922 2.5614a1.6537 1.9048 0 0 1 1.7133 1.7414 1.6537 1.9048 0 0 1-1.4324 2.0505"/>
  <path transform="rotate(4.2371)" d="m7.0505 3.4879a0.80762 0.93025 0 0 1 0.83671 0.85044 0.80762 0.93025 0 0 1-0.69954 1.0014"/>
  <circle cx="6.3323" cy="4.8864" r=".13607"/>
 </g>
</svg>
