<?xml version="1.0" encoding="UTF-8"?>
<!-- Created with Inkscape (http://www.inkscape.org/) -->
<svg width="150" height="50" version="1.1" viewBox="0 0 103.19 34.396" xmlns="http://www.w3.org/2000/svg" xmlns:xlink="http://www.w3.org/1999/xlink">
 <defs>
  <clipPath id="clipPath6178">
   <path d="m69.534-2.5629a12.048 11.27 0 0 1 8.9159 3.2169 12.048 11.27 0 0 1 3.6074 8.2775l-12.046-0.23325z" fill-rule="evenodd" stroke="#000" stroke-linecap="round" stroke-linejoin="round" stroke-width=".255"/>
  </clipPath>
  <clipPath id="clipPath6182">
   <path d="m69.534-2.5629a12.048 11.27 0 0 1 8.9159 3.2169 12.048 11.27 0 0 1 3.6074 8.2775l-12.046-0.23325z" fill-rule="evenodd" stroke="#000" stroke-linecap="round" stroke-linejoin="round" stroke-width=".255"/>
  </clipPath>
  <clipPath id="clipPath6186">
   <path d="m69.534-2.5629a12.048 11.27 0 0 1 8.9159 3.2169 12.048 11.27 0 0 1 3.6074 8.2775l-12.046-0.23325z" fill-rule="evenodd" stroke="#000" stroke-linecap="round" stroke-linejoin="round" stroke-width=".255"/>
  </clipPath>
  <clipPath id="clipPath7103">
   <rect x="27.613" y="8.5199" width="45.471" height="21.959" ry="3.4928" fill-rule="evenodd" stroke="#000" stroke-linecap="round" stroke-linejoin="round" stroke-width="3.2152"/>
  </clipPath>
  <linearGradient id="linearGradient46562" x1="27.613" x2="73.084" y1="19.599" y2="19.599" gradientUnits="userSpaceOnUse">
   <stop stop-color="#b3294e" offset="0"/>
  </linearGradient>
 </defs>
 <g>
  <text x="7.6238031" y="21.239079" fill="#000000" font-family="'Cera Pro'" font-size="10.583px" stroke-width=".26458" style="line-height:1.25" xml:space="preserve"><tspan x="7.6238031" y="21.239079" font-family="'Cera Pro'" stroke-width=".26458"/></text>
  <g transform="matrix(1.0915 0 0 1.0915 -3.697 -1.9244)">
   <g transform="translate(.097231 -8.6301)">
    <text x="9.5468912" y="30.509481" fill="#4829b2" font-family="'Cera Pro'" font-size="19.684px" font-weight="900" style="line-height:1.25" xml:space="preserve"><tspan x="9.5468912" y="30.509481" fill="#4829b2" font-family="'Baloo Bhaijaan'" font-weight="bold">RF-ID.IR</tspan></text>
    <text transform="scale(1.0349 .96627)" x="8.7252989" y="38.144577" fill="#4829b2" font-family="sans-serif" font-size="6.7905px" letter-spacing="0px" style="line-height:1.25" xml:space="preserve"><tspan x="8.7252989" y="38.144577" fill="#4829b2" font-size="6.7905px">consulting and supply </tspan></text>
    <g transform="matrix(1.2223 1.4019 -1.4019 1.2223 5.3761 -83.886)" fill-opacity="0" stroke="#b3294e" stroke-linecap="round" stroke-linejoin="round" stroke-width="1.5723" style="mix-blend-mode:lighten">
     <path d="m68.472-0.024484a10.841 10.14 0 0 1 8.0227 2.8943 10.841 10.14 0 0 1 3.246 7.4475l-10.839-0.20986z" clip-path="url(#clipPath6186)"/>
     <path d="m66.61 1.984a10.841 10.14 0 0 1 8.0227 2.8943 10.841 10.14 0 0 1 3.246 7.4475l-10.839-0.20986z" clip-path="url(#clipPath6182)"/>
     <path d="m64.594 3.83a10.841 10.14 0 0 1 8.0227 2.8943 10.841 10.14 0 0 1 3.246 7.4475l-10.839-0.20986z" clip-path="url(#clipPath6178)"/>
    </g>
    <path transform="matrix(1.8454 0 0 1.7441 -45.813 -7.7747)" x="28.046507" y="12.162433" width="50.46143" height="14.872591" ry="2.7489233" d="m30.795 12.162h44.964c1.5229 0 2.7489 1.226 2.7489 2.7489v9.3747c0 1.5229-1.226 2.7489-2.7489 2.7489h-44.964c-1.5229 0-2.7489-1.226-2.7489-2.7489v-9.3747c0-1.5229 1.226-2.7489 2.7489-2.7489z" clip-path="url(#clipPath7103)" fill="none" stroke="url(#linearGradient46562)" stroke-linecap="round" stroke-linejoin="round" stroke-width="1.523"/>
   </g>
  </g>
 </g>
</svg>
